<?xml version="1.0" standalone="no"?>
<!DOCTYPE svg PUBLIC "-//W3C//DTD SVG 20010904//EN"
 "http://www.w3.org/TR/2001/REC-SVG-20010904/DTD/svg10.dtd">
<svg version="1.0" xmlns="http://www.w3.org/2000/svg"
 width="700.000000pt" height="700.000000pt" viewBox="0 0 700.000000 700.000000"
 preserveAspectRatio="xMidYMid meet">
<metadata>
Created by potrace 1.14, written by Peter Selinger 2001-2017
</metadata>
<g transform="translate(0.000000,700.000000) scale(0.100000,-0.100000)"
fill="#000000" stroke="none">
<path d="M3488 6745 c-2 -1 -68 -5 -148 -9 -80 -3 -161 -8 -180 -11 -19 -2
-57 -7 -85 -10 -27 -4 -57 -8 -65 -10 -8 -2 -35 -7 -60 -10 -101 -14 -325 -70
-475 -120 -375 -125 -699 -302 -1025 -563 -100 -80 -336 -310 -411 -401 -24
-29 -54 -65 -67 -80 -49 -57 -188 -257 -249 -359 -168 -279 -316 -640 -378
-922 -66 -299 -86 -481 -85 -765 1 -186 3 -224 26 -415 46 -382 205 -847 409
-1197 482 -823 1306 -1402 2225 -1562 157 -27 175 -30 255 -37 39 -3 88 -7
110 -9 57 -6 371 -6 430 -1 28 3 79 8 115 11 69 7 100 11 195 26 99 15 138 23
305 64 37 9 111 31 175 53 44 14 82 27 85 27 3 1 19 7 35 14 17 6 66 26 110
43 112 44 360 171 483 248 109 68 290 201 389 285 77 65 294 283 364 365 88
103 299 396 299 416 0 3 8 18 19 32 35 51 104 182 160 307 18 39 36 79 41 90
69 147 160 452 196 655 2 14 6 34 9 46 8 37 26 167 31 229 3 33 7 83 9 110 5
61 6 376 1 425 -2 19 -7 69 -10 110 -8 91 -13 128 -26 200 -5 30 -12 72 -16
93 -19 128 -100 403 -175 597 -44 116 -180 383 -259 508 -66 106 -230 328
-297 405 -91 103 -317 320 -418 401 -293 235 -641 426 -1005 551 -84 29 -353
100 -415 109 -22 4 -65 11 -95 16 -121 21 -194 29 -360 36 -74 3 -143 7 -152
8 -9 2 -18 3 -20 1z"/>
</g>
</svg>
